# xmcd
#
# Track frame offsets:
#	150
#	18553
#	32755
#	48135
#	65010
#	82440
#	98095
#	117825
#	134503
#	151098
#	168430
#	185130
#	202365
#
# Disc length: 2952 seconds
#
# Revision: 1
# Processed by: cddbd v1.5.1PL0 Copyright (c) Steve Scherf et al.
# Submitted via: CDex 1.50Beta5
#
DISCID=bc0b860d
DTITLE=島倉千代子 - 島倉千代子ヒット曲集 Disc 2
DYEAR=1900
DGENRE=World
TTITLE0=東京だョおっ母さん
TTITLE1=思い出さん今日は
TTITLE2=逢いたいなァあの人に
TTITLE3=美しきは女の旅路
TTITLE4=悲しみの宿
TTITLE5=おもいで日記
TTITLE6=武蔵野エレジー
TTITLE7=哀愁のからまつ林
TTITLE8=襟裳岬
TTITLE9=さよならとさよなら
TTITLE10=りんどう峠
TTITLE11=新妻鏡
TTITLE12=すみだ川
EXTD=
EXTT0=
EXTT1=
EXTT2=
EXTT3=
EXTT4=
EXTT5=
EXTT6=
EXTT7=
EXTT8=
EXTT9=
EXTT10=
EXTT11=
EXTT12=
PLAYORDER=
